<svg xmlns="http://www.w3.org/2000/svg" viewBox="0 0 800 300" width="100%" height="100%">
  <defs>
    <filter id="shadow-primary" x="-20%" y="-20%" width="140%" height="140%">
      <feDropShadow dx="0" dy="4" stdDeviation="7" flood-color="#3b82f6" flood-opacity="0.39"/>
    </filter>
  </defs>

  <g transform="rotate(15 130 150)" filter="url(#shadow-primary)">
    <path fill="#3b82f6" fill-rule="evenodd" d="
      M 130 40 
      C 174 40, 210 76, 210 120 
      C 210 156, 184 195, 142 242 
      C 136 249, 124 249, 118 242 
      C 76 195, 50 156, 50 120 
      C 50 76, 86 40, 130 40 Z
      
      M 130 80 
      L 100 80 
      L 100 170 
      L 125 170 
      L 125 140 
      L 130 140 
      C 147 140, 160 127, 160 110 
      C 160 93, 147 80, 130 80 Z" 
    />

    <circle cx="130" cy="110" r="12" fill="#10b981" />
  </g>

  <text x="280" y="175" font-family="system-ui, -apple-system, BlinkMacSystemFont, 'Segoe UI', Roboto, Helvetica, Arial, sans-serif" font-size="76" letter-spacing="-1">
    <tspan font-weight="900" fill="#0f172a">Park</tspan>
    <tspan font-weight="500" fill="#3b82f6">Go</tspan>
  </text>
</svg>
